<svg width="40" height="49" viewBox="0 0 40 49" fill="none" xmlns="http://www.w3.org/2000/svg">
<path d="M34.0304 5.83963C30.1369 1.9462 25.0363 0.000244141 19.9342 0.000244141C14.8321 0.000244141 9.73138 1.9462 5.83795 5.83963C-1.94598 13.6236 -1.94598 26.2452 5.83795 34.0305L19.9342 48.1252L34.0304 34.0305C41.8142 26.2452 41.8142 13.6236 34.0304 5.83963ZM31.9037 31.9039L19.9342 43.872L7.96457 31.9039C4.76877 28.7066 3.00788 24.4564 3.00788 19.9343C3.00788 15.4123 4.76877 11.162 7.96457 7.96625C11.1634 4.76753 15.4136 3.00806 19.9342 3.00806C24.4547 3.00806 28.705 4.76753 31.9037 7.96625C35.0995 11.162 36.8604 15.4124 36.8604 19.9343C36.8604 24.4563 35.0995 28.7066 31.9037 31.9039Z" fill="#B21414"/>
</svg>
